<svg xmlns="http://www.w3.org/2000/svg" width="32" height="32" viewBox="0 0 32 32">
<path fill-rule="evenodd" clip-rule="evenodd" d="M23.5 11C24.8807 11 26 9.88071 26 8.5C26 7.11929 24.8807 6 23.5 6C22.1193 6 21 7.11929 21 8.5C21 9.88071 22.1193 11 23.5 11ZM23.5 9C23.7761 9 24 8.77614 24 8.5C24 8.22386 23.7761 8 23.5 8C23.2239 8 23 8.22386 23 8.5C23 8.77614 23.2239 9 23.5 9Z"/>
<path fill-rule="evenodd" clip-rule="evenodd" d="M29.1307 11.3795L29.2096 11.3518C29.7218 12.8075 30 14.3723 30 16C30 23.732 23.732 30 16 30C8.26801 30 2 23.732 2 16C2 8.26801 8.26801 2 16 2C17.5698 2 19.0809 2.25875 20.4919 2.73645C21.3914 2.26603 22.4146 2 23.5 2C27.0899 2 30 4.91015 30 8.5C30 9.3713 29.6748 10.2881 29.2605 11.1252C29.2186 11.2099 29.1753 11.2947 29.1307 11.3795ZM27.7521 13.5606C27.9146 14.3477 28 15.1635 28 16C28 22.6274 22.6274 28 16 28C9.37258 28 4 22.6274 4 16C4 9.37258 9.37258 4 16 4C16.8797 4 17.7366 4.0945 18.5613 4.27374C17.588 5.41013 17 6.8864 17 8.5C17 9.3713 17.3252 10.2881 17.7395 11.1252C18.1631 11.9811 18.7298 12.8519 19.3174 13.6563C20.4935 15.2661 21.8169 16.6959 22.4325 17.338C23.0163 17.9469 23.9836 17.9469 24.5675 17.338C25.1831 16.6959 26.5065 15.2661 27.6826 13.6563C27.7058 13.6245 27.729 13.5926 27.7521 13.5606ZM19 8.5C19 6.01472 21.0147 4 23.5 4C25.9853 4 28 6.01472 28 8.5C28 8.91553 27.8317 9.5032 27.468 10.2381C27.1136 10.9543 26.6178 11.7233 26.0676 12.4765C25.1648 13.7123 24.1582 14.8477 23.5 15.5553C22.8418 14.8477 21.8352 13.7123 20.9324 12.4765C20.3822 11.7233 19.8864 10.9543 19.532 10.2381C19.1683 9.5032 19 8.91553 19 8.5Z"/>
<path fill-rule="evenodd" clip-rule="evenodd" d="M2.24999 16.5C2.24999 16.0857 2.58578 15.75 2.99999 15.75C3.43878 15.75 3.76419 15.9909 3.95923 16.1768C4.16337 16.3714 4.33578 16.6125 4.47176 16.8174C4.54228 16.9237 4.6102 17.0315 4.67212 17.1301C4.67695 17.1378 4.68175 17.1455 4.6865 17.153C4.74434 17.2452 4.79631 17.328 4.84693 17.4052C4.90167 17.4887 4.94792 17.5551 4.988 17.6068C5.00764 17.6321 5.02361 17.651 5.03612 17.6648C5.04225 17.6715 5.04702 17.6765 5.05043 17.6798C5.05387 17.6832 5.05524 17.6844 5.05524 17.6844C5.39298 17.9763 5.77193 18.2272 6.19463 18.4973C6.24056 18.5267 6.28715 18.5563 6.33429 18.5863C6.70758 18.824 7.11506 19.0834 7.49688 19.3804C7.55358 19.4245 7.60917 19.4764 7.64626 19.5115C7.66803 19.5321 7.69664 19.5595 7.72412 19.5859C7.74289 19.604 7.76113 19.6215 7.77629 19.6359C7.83336 19.6903 7.88834 19.7414 7.94104 19.7869C7.97978 19.749 8.01936 19.7114 8.05831 19.6759C8.21045 19.5374 8.41445 19.3729 8.66511 19.2589C9.07972 19.0705 9.54031 19.0601 9.93911 19.3213C10.2788 19.5437 10.4572 19.8916 10.5557 20.1531C10.7575 20.6886 10.7974 21.3381 10.7974 21.693V22.1436C10.7974 22.2975 10.7855 22.4665 10.7753 22.6114L10.7744 22.6249C10.7638 22.7747 10.7542 22.9118 10.7509 23.0452C10.7481 23.159 10.7505 23.2551 10.7584 23.3348C11.1104 23.3124 11.4737 23.2101 11.8708 23.0526C12.1605 22.9377 12.4128 22.8187 12.683 22.6914C12.8611 22.6074 13.0469 22.5198 13.2562 22.4273C13.2693 22.42 13.2863 22.4105 13.3056 22.3999C13.3548 22.373 13.4282 22.3342 13.5081 22.2985C13.5717 22.2702 13.7046 22.2133 13.8543 22.1915C13.9209 22.1817 14.0919 22.1621 14.2842 22.2364C14.5426 22.3361 14.7353 22.5657 14.7794 22.8523C14.7912 22.9288 14.791 22.9956 14.7903 23.0325C14.7899 23.0488 14.7893 23.0647 14.7885 23.0797C15.0619 23.2822 15.3616 23.4833 15.6718 23.6914C15.7296 23.7302 15.7878 23.7693 15.8463 23.8087C16.0587 23.9516 16.3141 24.1476 16.4556 24.4785C16.5741 24.7557 16.5738 25.0547 16.5735 25.2555C16.5735 25.2641 16.5735 25.2726 16.5735 25.2809C16.5735 25.7923 16.3214 26.1624 16.0003 26.3984C15.7243 26.6011 15.3909 26.71 15.1617 26.7807C15.088 26.8035 15.0217 26.8233 14.9611 26.8413C14.794 26.8912 14.67 26.9282 14.5532 26.9786C14.4919 27.005 14.458 27.0253 14.4411 27.0368C14.4363 27.0547 14.4295 27.0857 14.4243 27.1324C14.4146 27.2184 14.414 27.3262 14.4251 27.4433C14.4362 27.5598 14.4575 27.6711 14.4842 27.7631C14.4974 27.8086 14.5107 27.8452 14.5226 27.8728C14.5349 27.9013 14.5427 27.9134 14.5427 27.9134C14.7724 28.258 14.6793 28.7237 14.3347 28.9534C13.99 29.1832 13.5244 29.0901 13.2946 28.7454C13.0737 28.414 12.9673 27.9592 12.9318 27.585C12.8972 27.2203 12.909 26.7189 13.1184 26.321C13.33 25.919 13.6955 25.715 13.959 25.6013C14.1653 25.5123 14.4078 25.4403 14.5926 25.3855C14.6391 25.3717 14.6819 25.359 14.7196 25.3474C14.906 25.2899 15.0125 25.2471 15.0733 25.2138C15.0729 25.1632 15.072 25.1256 15.0706 25.0964C15.055 25.0849 15.0348 25.0705 15.0087 25.053C14.9536 25.0159 14.8971 24.9781 14.8397 24.9396C14.4388 24.6708 13.9921 24.3713 13.6037 24.0606C13.5655 24.03 13.5318 23.9977 13.5023 23.9646C13.4685 23.9804 13.4343 23.9964 13.3996 24.0127C13.0863 24.1593 12.7394 24.3217 12.4239 24.4469C11.8886 24.6593 11.2797 24.8395 10.6141 24.8395C10.3622 24.8395 9.79368 24.7962 9.48395 24.2386C9.25404 23.8248 9.24344 23.3318 9.25136 23.0085C9.25549 22.8397 9.26735 22.6716 9.27732 22.5302C9.27789 22.5221 9.27846 22.5141 9.27901 22.5062C9.29001 22.3498 9.29739 22.2352 9.29739 22.1436V21.693C9.29739 21.405 9.2601 20.9873 9.16078 20.706C9.13346 20.7275 9.10268 20.7536 9.0681 20.7851C8.99418 20.8524 8.93191 20.9161 8.85801 20.9917C8.82073 21.0299 8.78048 21.071 8.73428 21.1172C8.40532 21.4462 7.99299 21.4474 7.71281 21.3686C7.46544 21.299 7.25722 21.1571 7.12077 21.0527C6.97303 20.9397 6.83863 20.8144 6.74128 20.7216C6.71502 20.6966 6.69447 20.6768 6.67615 20.6592C6.6549 20.6388 6.63664 20.6212 6.61597 20.6017C6.58541 20.5728 6.57394 20.5629 6.57394 20.5629L6.57597 20.5644C6.25357 20.3137 5.90831 20.0936 5.52772 19.8511C5.48132 19.8215 5.43439 19.7916 5.38691 19.7613C4.96312 19.4904 4.50215 19.189 4.07445 18.8193C3.8751 18.6471 3.71011 18.4071 3.59233 18.2274C3.53323 18.1372 3.47352 18.0421 3.41745 17.9527C3.4122 17.9444 3.40698 17.9361 3.4018 17.9278C3.3395 17.8286 3.28072 17.7354 3.22185 17.6467C3.09907 17.4616 3.00197 17.3366 2.92435 17.2627C2.91651 17.2552 2.90965 17.249 2.90373 17.2438C2.53498 17.1966 2.24999 16.8816 2.24999 16.5ZM13.2906 23.0001C13.2906 22.9962 13.2908 22.994 13.2908 22.994ZM13.2325 22.4407C13.2237 22.4457 13.226 22.4442 13.2349 22.4394L13.2325 22.4407Z"/>
<path fill-rule="evenodd" clip-rule="evenodd" d="M17.2708 7.34666C17.3248 7.5701 17.4804 7.7659 17.7085 7.86211C18.0901 8.02313 18.53 7.84428 18.691 7.46264C18.8358 7.11962 18.6955 6.81726 18.6605 6.74327C18.6033 6.62213 18.5261 6.51471 18.4596 6.43116C18.3219 6.25816 18.1318 6.06676 17.9203 5.87399C17.4909 5.48277 16.8944 5.015 16.2363 4.56577C15.578 4.11646 14.8388 3.6725 14.1225 3.33778C13.4275 3.01297 12.6693 2.75001 12 2.74999C11.5858 2.74998 11.25 3.08576 11.25 3.49997C11.25 3.91419 11.5858 4.24998 12 4.24999C12.3307 4.25 12.8436 4.39583 13.4875 4.69671C14.1102 4.98769 14.7777 5.38633 15.3906 5.80468C16.0036 6.2231 16.5427 6.64804 16.91 6.98274C17.0832 7.14059 17.202 7.26374 17.2708 7.34666Z"/>
<path d="M6.27239 6.57503C6.17193 6.97688 6.41625 7.38408 6.8181 7.48454C7.14492 7.56625 7.47528 7.4199 7.64129 7.14622C7.69037 7.11024 7.76648 7.06242 7.86409 7.00933C7.96833 6.95264 8.0791 6.89968 8.17509 6.85887C8.2704 6.81834 8.322 6.80224 8.33085 6.79948L8.33215 6.79906C8.79208 6.69557 8.99907 6.76743 9.11684 6.88918C9.19646 6.9715 9.27206 7.0837 9.36088 7.24774C9.38867 7.29906 9.41573 7.35153 9.44424 7.4078L9.39907 7.4778C9.31027 7.61545 9.18462 7.77159 9.0345 7.95815C8.95615 8.0555 8.87112 8.16116 8.78121 8.27677C8.66768 8.42275 8.54085 8.59307 8.44818 8.755C8.40263 8.83458 8.34639 8.94429 8.31016 9.0699C8.2792 9.17724 8.22393 9.42659 8.34719 9.69622C8.3967 9.80451 8.53356 10.1665 8.6697 10.563C8.73559 10.7549 8.797 10.9424 8.84333 11.0962C8.89452 11.2661 8.91074 11.3419 8.91168 11.3463C8.93878 11.5631 9.04667 11.7106 9.1009 11.7762C9.16298 11.8513 9.22917 11.9073 9.27763 11.9447C9.37547 12.0203 9.48833 12.0862 9.59083 12.1409C9.80156 12.2534 10.0794 12.3766 10.3835 12.5023C10.9968 12.7558 11.8031 13.0539 12.5884 13.3439L12.6267 13.358C13.26 13.5919 13.8779 13.8201 14.3908 14.0219C13.9563 14.1922 13.4895 14.3801 13.0314 14.6226C12.8392 14.7244 12.6621 14.8546 12.5133 15.037C12.3679 15.215 12.2794 15.4064 12.2152 15.5862C12.0313 16.101 12.1628 16.6252 12.2737 16.9626C12.3343 17.1471 12.4063 17.3243 12.4675 17.4722L12.4934 17.5349C12.5461 17.662 12.5863 17.7592 12.6171 17.8462C12.8263 18.439 13.1247 18.9857 13.6109 19.3797C14.1101 19.7842 14.7234 19.9608 15.4297 19.9681C15.9446 19.9734 16.4747 19.9217 16.9806 19.8159C17.0169 19.8228 17.0665 19.8333 17.1311 19.8486C17.3102 19.8911 17.5573 19.9587 17.8575 20.0464C18.4556 20.2211 19.2248 20.4636 20.001 20.7116C20.2536 20.7923 20.5072 20.8737 20.7553 20.9533C21.2647 21.1167 21.7508 21.2727 22.1574 21.4001C22.4597 21.4949 22.7251 21.5761 22.9281 21.6341C23.029 21.6629 23.1214 21.688 23.1985 21.7065L23.2041 21.7079C23.2485 21.7186 23.3582 21.745 23.4695 21.7493C24.226 21.7838 24.9725 21.8574 25.7303 21.9616C26.0204 22.0015 26.1566 22.0607 26.356 22.2243C26.356 22.2243 26.3635 22.2311 26.3751 22.2426C26.3906 22.258 26.4093 22.2773 26.4348 22.3043L26.455 22.3258C26.5001 22.3736 26.5632 22.4406 26.6281 22.5029C26.7034 22.5752 26.8096 22.6693 26.9392 22.7479C27.067 22.8255 27.266 22.9176 27.5154 22.9176C27.9297 22.9176 28.2654 22.5818 28.2654 22.1676C28.2654 21.8112 28.0169 21.5129 27.6837 21.4366L27.6664 21.4204C27.6312 21.3866 27.5973 21.3507 27.551 21.3016L27.5236 21.2726C27.4752 21.2214 27.3951 21.1367 27.3087 21.0658C26.8756 20.7099 26.474 20.5497 25.9346 20.4756C25.1489 20.3675 24.3661 20.2897 23.5673 20.2522L23.5483 20.2479C23.5016 20.2367 23.4328 20.2183 23.3402 20.1918C23.1562 20.1393 22.9058 20.0628 22.606 19.9688C22.2043 19.8429 21.7266 19.6896 21.2204 19.5272C20.9713 19.4472 20.7149 19.3649 20.4575 19.2827C19.6818 19.0349 18.8962 18.7871 18.278 18.6066C17.9702 18.5167 17.6939 18.4405 17.477 18.3891C17.3697 18.3636 17.2648 18.3413 17.172 18.327C17.1258 18.3199 17.0718 18.313 17.0156 18.3099C16.972 18.3076 16.8718 18.3036 16.7572 18.3295C16.3343 18.425 15.8816 18.4727 15.4452 18.4682C14.9865 18.4634 14.7287 18.3548 14.5553 18.2143C14.369 18.0634 14.1933 17.8053 14.0315 17.347C13.9862 17.2186 13.9282 17.0787 13.8772 16.9558L13.8537 16.8992C13.7933 16.7531 13.7403 16.621 13.6987 16.4943C13.6568 16.3668 13.634 16.2671 13.6263 16.1906C13.6192 16.1194 13.6278 16.0906 13.6278 16.0906C13.6434 16.0472 13.6554 16.0207 13.6636 16.0049C13.6676 15.9972 13.6705 15.9924 13.6723 15.9896C13.6741 15.987 13.6752 15.9855 13.6752 15.9855L13.676 15.9847C13.676 15.9847 13.678 15.9828 13.6812 15.9803C13.6876 15.9753 13.7029 15.9644 13.7333 15.9483C14.1098 15.7489 14.507 15.5875 14.9407 15.4174L15.0834 15.3616C15.4674 15.2116 15.8814 15.0498 16.2868 14.856C16.5364 14.7366 16.6898 14.4971 16.7108 14.2398C16.7362 14.1645 16.75 14.0839 16.75 14C16.75 13.745 16.6292 13.5688 16.5731 13.497C16.5083 13.414 16.4379 13.3541 16.3902 13.317C16.2927 13.2411 16.18 13.176 16.0807 13.1234C15.8749 13.0144 15.6012 12.894 15.301 12.7708C14.7098 12.5283 13.9311 12.2407 13.1647 11.9577L13.108 11.9368C12.314 11.6436 11.5376 11.3562 10.9564 11.116C10.6841 11.0035 10.4728 10.9087 10.3291 10.8344C10.3128 10.7753 10.2957 10.7172 10.2796 10.6635C10.2259 10.4852 10.1579 10.2783 10.0884 10.0758C10.0049 9.8327 9.91238 9.57617 9.83407 9.37249C9.86907 9.32344 9.91261 9.26536 9.96527 9.19764C10.0147 9.13411 10.0747 9.05944 10.1395 8.97873C10.2848 8.79793 10.4544 8.58683 10.5839 8.40282C10.6296 8.36476 10.6878 8.3133 10.7463 8.25237C10.8098 8.18622 10.9116 8.07063 10.9846 7.91759C11.0553 7.76952 11.1618 7.44291 10.9715 7.09787C10.9284 7.01982 10.8864 6.9368 10.8378 6.84003L10.8289 6.82241C10.7844 6.73383 10.7339 6.63327 10.6799 6.53354C10.5647 6.32072 10.4129 6.0716 10.195 5.84634C9.52179 5.15028 8.62889 5.19479 8.00288 5.33564C7.76793 5.38851 7.41696 5.54502 7.14744 5.6916C7.00334 5.76997 6.84603 5.86503 6.71102 5.96911C6.64398 6.02078 6.5661 6.08711 6.49507 6.16695C6.4339 6.2357 6.32242 6.37492 6.27239 6.57503Z"/>
<path fill-rule="evenodd" clip-rule="evenodd" d="M24.6264 15.0324C24.8388 14.5226 25.4243 14.2815 25.9341 14.4939C26.182 14.5972 26.3378 14.7621 26.3994 14.8299C26.4326 14.8664 26.4617 14.9018 26.4756 14.9187L26.4781 14.9217C26.4857 14.9309 26.4898 14.9358 26.4915 14.9379C26.5311 14.9808 26.5577 15.0077 26.5919 15.0421C26.6226 15.0731 26.6595 15.1101 26.7172 15.1705C26.812 15.2698 26.9349 15.4049 27.0472 15.5716C27.441 16.1563 27.532 16.807 27.5843 17.2584C27.595 17.351 27.6043 17.4359 27.6129 17.5143C27.6534 17.8833 27.6783 18.1095 27.7577 18.3204C27.9691 18.8821 28.1199 19.2359 28.3837 19.5765C28.8641 19.7756 29.1157 20.3153 28.9487 20.8162C28.7935 21.2818 28.329 21.5573 27.8599 21.4903C27.8109 21.4897 27.7556 21.4855 27.6959 21.4751C27.5369 21.4473 27.4109 21.3872 27.3205 21.3306C27.238 21.2789 27.1779 21.2253 27.1446 21.1941C27.1091 21.1606 27.0791 21.1286 27.0577 21.105C26.4217 20.4038 26.1495 19.7254 25.8858 19.0248C25.7082 18.5528 25.6539 18.0271 25.616 17.6609C25.6095 17.5983 25.6035 17.5404 25.5975 17.4882C25.5473 17.0539 25.4885 16.8375 25.3883 16.6888C25.37 16.6617 25.338 16.6221 25.2714 16.5525C25.2602 16.5408 25.2398 16.5199 25.2146 16.4942C25.1554 16.4339 25.0697 16.3465 25.0144 16.2863C24.9949 16.265 24.9765 16.2437 24.9619 16.2265C24.5951 15.9606 24.4446 15.4688 24.6264 15.0324ZM27.6913 19.5081C27.689 19.5086 27.6898 19.5084 27.6927 19.5078Z"/>
</svg>
